<svg id="Layer_1" data-name="Layer 1" xmlns="http://www.w3.org/2000/svg" xmlns:xlink="http://www.w3.org/1999/xlink" viewBox="0 0 1009.9 342.2"><defs><linearGradient id="linear-gradient" x1="57.75" y1="124.65" x2="112.06" y2="178.6" gradientUnits="userSpaceOnUse"><stop offset="0" stop-color="#fff"/><stop offset="0.11" stop-color="#fafdfe"/><stop offset="0.25" stop-color="#ebf7fc"/><stop offset="0.4" stop-color="#d2edf9"/><stop offset="0.56" stop-color="#b0e0f4"/><stop offset="0.73" stop-color="#83ceee"/><stop offset="0.89" stop-color="#4eb9e7"/><stop offset="1" stop-color="#29abe2"/></linearGradient><linearGradient id="linear-gradient-2" x1="276.09" y1="132.35" x2="204.44" y2="178.45" gradientUnits="userSpaceOnUse"><stop offset="0" stop-color="#fff"/><stop offset="0.2" stop-color="#cfecf8"/><stop offset="0.59" stop-color="#76c9ec"/><stop offset="0.87" stop-color="#3fb3e5"/><stop offset="1" stop-color="#29abe2"/></linearGradient><radialGradient id="radial-gradient" cx="139.37" cy="327.21" r="79.51" gradientUnits="userSpaceOnUse"><stop offset="0"/><stop offset="1"/></radialGradient></defs><title>factsy</title><path d="M1006.2,318.5c-15.5-1.1-28.9.1-40.9-3.2-21.7-6.1-34.3-24.5-34.6-47.1-.4-24.7-.2-49.5-.1-74.2.1-11.3,5.2-16.9,14.8-17s15.1,5.7,15.2,16.7c.3,24.7-.2,49.5.4,74.2.4,16.9,12.6,26.8,28.6,24.5,10.6-1.6,16.5-7.9,16.6-18.7.1-26.5.1-52.9.1-79.4,0-8.8,2.6-15.7,12.5-17.1s17.2,4.3,17.2,14.3c.2,51.5.5,103.1-.2,154.6-.2,17.1-9.6,29.9-25.6,36.8-18.7,8-37.6,7.6-56-.9-13.7-6.3-22.2-17.1-23.3-32.7-.6-9.7,4.1-15.8,12.9-16.5s14.2,3.2,16.2,12.2c2.9,13.2,7.7,17.4,19.8,18.3,18,1.3,26.2-6.2,26.5-24.3C1006.3,331.4,1006.2,324,1006.2,318.5Z" transform="translate(-26.3 -62.3)" style="fill:#242968"/><path d="M345.5,212c0-28.9-.1-57.8,0-86.7,0-14.9,4.7-19.7,19.8-19.8,26.5-.2,53,0,79.4,0a39.2,39.2,0,0,1,5.2.2c7.9,1.1,13.9,4.6,14.4,13.4.5,7.2-6.4,13.2-15.3,13.4-19.6.3-39.2.1-58.8.2-14.2,0-14.2,0-14.2,14.3,0,11.3.3,22.7-.1,34-.3,7.9,2.5,11.3,10.7,11,12.7-.4,25.4-.1,38.2-.1a72.5,72.5,0,0,1,9.3.4c7.7,1,13.4,5,13.3,13.1s-6,12.3-13.5,12.9-17.9.4-26.8.4c-31,0-31,0-31,31.6,0,16.9.1,33.7-.1,50.6-.1,11.7-5.5,17.9-15.2,17.9s-15.1-6.2-15.2-17.9C345.4,271.1,345.5,241.5,345.5,212Z" transform="translate(-26.3 -62.3)" style="fill:#242968"/><path d="M533.1,184.7c2.5-2.3,4.6-5.1,7.5-6.7,9.7-5.6,21,.6,21.1,12,.3,38.1.5,76.3-.3,114.4-.1,4.9-4.7,12.3-9,13.9s-11-2.1-16.4-4.2c-1.5-.6-2.2-3.3-3.5-5.6-17,15.3-34.2,14.1-51.1,5s-25.2-25.5-25-45.3c.1-14.4-.2-28.9.1-43.3.7-40.1,39.1-61.6,73.5-41.1A13.6,13.6,0,0,0,533.1,184.7Zm-.5,62.4h0c0-7.5.3-15.1-.1-22.6-.6-13.3-8.6-21.5-21-22.2s-24,7-24.8,20.5a433.6,433.6,0,0,0,0,50.4c.7,12,10.4,19.1,22.9,18.9s22.1-8,22.8-20.3C533,263.5,532.6,255.3,532.6,247.1Z" transform="translate(-26.3 -62.3)" style="fill:#242968"/><path d="M715.1,246.6c0-11.4-.2-22.8.1-34.3a7.7,7.7,0,0,0-7.8-8,33.5,33.5,0,0,1-6.2-.4c-7.5-1.2-13.3-4.7-13.3-13.1s6.3-13.1,13.4-12.7c12.9.6,14.5-5.7,13.9-16.2-.7-12.7-.3-25.4-.1-38.1.2-10.7,6-17,15.2-16.9s14.3,6.3,14.4,16.5c.2,14.8.3,29.6,0,44.3-.1,6.9,2.3,10.1,9.6,9.8,9.6-.4,19.2-.2,28.9,0s17,5.6,17,12.9-6.6,13.2-16.5,13.7-19.2.4-28.9.2c-6.7-.2-10.2,2-10.1,9.4.3,20.6,0,41.2.1,61.9.1,7.8,2.7,15.1,11.5,15.7s12.3-6,13.8-13.8c2.1-10.3,8.1-14.8,17-13.3s12.2,7.4,11.3,17.8c-1.7,20.5-19.8,36.3-41.8,36.3s-40.2-15.9-41.5-37.6c-.7-11.3-.1-22.7-.1-34Z" transform="translate(-26.3 -62.3)" style="fill:#242968"/><path d="M864.9,322.4c-21.5-2.5-39.6-7.8-50.5-27.4-5.2-9.3-4-16.1,3.4-20.5s15.6-2.4,21.2,5.8c8.7,12.6,22.7,18.5,34.4,12.7,4.8-2.3,9.7-8.3,10.7-13.3s-3.5-10.6-7.4-13c-7.1-4.4-15.7-6.7-23.6-9.8-6.4-2.5-13.1-4.4-19-7.6-13.7-7.5-21.5-19-20.5-35.3s10.4-26.7,24.6-32.7c17.7-7.4,35.8-6.9,52.7,2.2,5.8,3.1,11,8.3,14.8,13.8,6.5,9.2,4.6,17.1-3.8,21.9s-14.2,2.3-20.1-7.3-25.3-13.3-34.6-5.6c-7.3,6.1-6.4,16.4,2.9,21.1s17.8,7.1,26.7,10.7c6.3,2.6,12.8,5,18.7,8.5,25.8,15.2,26.6,49.6.7,64.9C887,317.1,881.4,320.6,864.9,322.4Z" transform="translate(-26.3 -62.3)" style="fill:#242968"/><path d="M577.1,247.5c0-7.2-.4-14.5.1-21.6,1.5-21.1,11.9-36.7,31.4-44.7s40.2-6.7,57.3,7.3c6.2,5.1,10.3,13.5,13.4,21.2s-.3,14.6-8.3,17.5-14.5-.2-19.1-7.7c-2.9-4.9-5.6-10.8-10.1-13.5-14-8.6-32,.3-33.9,17.4s-1.2,32.3-.1,48.3c.8,11.3,10.1,19.6,19.9,20.7s19-4.8,23.9-15.9,12.2-14.3,20.9-10.4,10.6,12.5,5.8,23c-9.4,20.4-32.1,32.1-56.5,29.2a50.4,50.4,0,0,1-43.7-41.9c-1.5-9.4-1.2-19.2-1.7-28.8Z" transform="translate(-26.3 -62.3)" style="fill:#242968"/><path d="M153,62.5h87.7c23.5.1,37.3,13.4,37.6,36.9.1,6.5,1.4,11.4,7.5,14.3a10.9,10.9,0,0,1,2.4,2c20.1,18.4,18.1,70-2.9,87.5-3.6,3-6.5,8.8-6.6,13.4-.5,35.4-.3,70.8-.3,106.2,0,24.9-13.1,38.4-38.1,38.4q-76.3.2-152.7,0c-25-.1-37.6-13.5-37.5-38.7.1-34.7-.1-69.5.1-104.2,0-6.6-.7-12.2-7.3-15.6-2.1-1-3.7-3.1-5.3-4.8-17.9-19.4-13.9-69,6.5-85.8,3.1-2.6,5.4-7.8,5.8-11.9a188.8,188.8,0,0,0,.2-27.8c-.4-7.7,2.4-10.1,10.1-10C91.1,62.7,122.1,62.5,153,62.5Zm11.6,280.9c25.5,0,50.9.1,76.3-.1,13.2-.1,19.3-5.8,19.4-18.7.3-34.7.1-69.5.3-104.2,0-6.6-2.5-9.3-9.1-9.2-10.7.2-21.3.2-32-.1-23.4-.6-39.1-15.1-40.2-38.4-.5-11.1-6.2-13.4-15.1-13.3s-14.9,1.5-15.3,13c-.9,23.8-16.8,38.2-40.8,38.7-10,.2-20,.3-29.9,0-7.4-.2-10.5,2.3-10.4,10.1.3,34,0,68.1.2,102.1.1,14.2,5.9,19.8,20.3,19.9C113.7,343.5,139.2,343.4,164.6,343.4ZM160.7,80.3c-27.5,0-55,.3-82.5-.1C68.7,80,67.7,85,67.7,92.5s1.2,12.4,10.6,12.1c15.1-.6,30.3-.4,45.4.1s25.4,9.1,25.2,24.1c-.2,11.4,3.2,15.9,14.6,13.5a10.7,10.7,0,0,1,4.1,0c8.5,1.6,11.4-1.6,11.5-10.3.3-18.9,9.3-27.2,28.4-27.5,14.8-.2,29.6-.3,44.3,0,7.8.1,9.6-3.8,8.2-10.4-2.2-10.2-9.3-13.7-18.9-13.7Zm73.6,43.1v-.4H206.5c-5.8,0-9,2.5-9,8.6.1,13.7-.4,27.5.2,41.2.5,11.6,8.3,19.4,19.8,19.8,15.1.5,30.2.5,45.3-.2,12.7-.6,19.8-8.6,20.2-21.4.3-8.6.3-17.2,0-25.7-.4-13.5-7.3-20.9-21-21.8C252.9,122.9,243.6,123.4,234.3,123.4ZM94.5,123H81.1c-4.8.1-9.6,0-14.4.4-14.2,1.2-21.2,8.5-21.5,22.5-.2,7.9-.2,15.8,0,23.7.4,14.6,7.6,22.4,22.1,22.9s28.2.5,42.2.1,21-8.5,21.4-21.5-.1-25.4.2-38.1c.1-7-2.9-10.1-9.8-10.1Z" transform="translate(-26.3 -62.3)" style="fill:#242968"/><path d="M164.6,343.4c-25.5,0-50.9.1-76.4,0-14.4-.1-20.2-5.7-20.3-19.9-.2-34,.1-68.1-.2-102.1-.1-7.8,3.1-10.3,10.4-10.1,10,.3,19.9.2,29.9,0,24-.5,39.9-14.9,40.8-38.7.4-11.5,6.8-12.9,15.3-13s14.6,2.3,15.1,13.3c1.1,23.3,16.8,37.7,40.2,38.4,10.7.3,21.3.3,32,.1,6.6-.1,9.2,2.6,9.1,9.2-.2,34.7.1,69.5-.3,104.2-.1,12.9-6.3,18.6-19.4,18.7C215.5,343.5,190.1,343.4,164.6,343.4Zm.2-116.5H118.4c-6.5,0-13.3-.9-19.5.6-3.7.9-6.4,5.6-9.6,8.6,3.1,3.1,5.8,6.9,9.4,8.9s6.7.5,10.2.5H210c6.5,0,13.3.9,19.5-.7,3.7-.9,6.5-5.6,9.7-8.6-3.1-3-5.9-6.6-9.6-8.9-2-1.3-5.4-.4-8.1-.4Zm-.2,91.6h60.8c6.6,0,13.4-.6,13.5-8.9s-6.8-9.3-13.3-9.3H103c-6.4,0-13.4.7-13.5,9.2s6.7,9.1,13.3,9.1Zm0-54.8H102.7c-6.6,0-13.3.9-13.2,9.3s6.7,9.4,13.4,9.4H225.6c6.8,0,13.3-1.6,13.3-9.5s-6.8-9.1-13.4-9.1Z" transform="translate(-26.3 -62.3)" style="fill:#ffe238"/><path d="M160.7,80.3h80.4c9.7,0,16.8,3.5,18.9,13.7,1.4,6.6-.3,10.6-8.2,10.4-14.8-.3-29.6-.2-44.3,0-19.2.3-28.1,8.5-28.4,27.5-.1,8.7-3.1,12-11.5,10.3a10.7,10.7,0,0,0-4.1,0c-11.3,2.4-14.7-2.1-14.6-13.5.2-15-9.5-23.6-25.2-24.1s-30.3-.6-45.4-.1c-9.4.4-10.7-4.5-10.6-12.1s1-12.5,10.5-12.3C105.7,80.6,133.2,80.3,160.7,80.3Z" transform="translate(-26.3 -62.3)" style="fill:#ffe238"/><path d="M233.7,123.4c9.4,0,18.8-.5,28.2.1,13.9.9,20.9,8.3,21.3,21.8.2,8.6.3,17.2,0,25.7-.4,12.8-7.7,20.8-20.5,21.4-15.3.7-30.6.7-45.9.2-11.6-.4-19.5-8.2-20-19.8-.6-13.7-.2-27.5-.3-41.2,0-6.1,3.2-8.7,9.1-8.6h28.2Z" transform="translate(-26.3 -62.3)" style="fill:#63c9f5"/><path d="M95.3,123.1c9.1,0,18.2.1,27.3,0,7-.1,10.1,3.2,10,10.3-.2,13,.2,25.9-.2,38.9s-8.6,21.6-21.8,22-28.7.4-43-.1-22.1-8.5-22.5-23.4c-.2-8.1-.2-16.1,0-24.2.4-14.3,7.5-21.7,21.9-23,4.9-.4,9.8-.4,14.7-.4H95.3Z" transform="translate(-26.3 -62.3)" style="fill:#63c9f5"/><path d="M164.8,226.9h56.7c2.7,0,6.1-.8,8.1.4,3.6,2.3,6.4,5.9,9.6,8.9-3.2,3-6,7.7-9.7,8.6-6.2,1.5-13,.7-19.5.7H108.9c-3.4,0-7.5.9-10.2-.5s-6.3-5.8-9.4-8.9c3.2-3,5.9-7.7,9.6-8.6,6.2-1.5,13-.6,19.5-.6Z" transform="translate(-26.3 -62.3)" style="fill:#242968"/><path d="M164.6,318.6H102.8c-6.5,0-13.4-.5-13.3-9.1s7.1-9.1,13.5-9.2H225.6c6.5,0,13.4,1,13.3,9.3s-6.9,9-13.5,8.9Z" transform="translate(-26.3 -62.3)" style="fill:#242968"/><path d="M164.6,263.8h60.8c6.7,0,13.4.9,13.4,9.1s-6.5,9.5-13.3,9.5H102.9c-6.7,0-13.3-1.2-13.4-9.4s6.6-9.3,13.2-9.3Z" transform="translate(-26.3 -62.3)" style="fill:#242968"/><path d="M94.2,128.8h22.6c5.8-.1,8.4,2.7,8.3,8.6-.2,10.9.2,21.8-.2,32.7s-7.1,18.2-18.1,18.5-23.8.3-35.7-.1-18.4-7.1-18.7-19.7c-.2-6.8-.2-13.6,0-20.3.3-12,6.2-18.3,18.2-19.3,4-.4,8.1-.3,12.2-.4H94.2Z" transform="translate(-26.3 -62.3)" style="opacity:0.8;fill:url(#linear-gradient)"/><path d="M235.2,128.4c7.9,0,15.9-.4,23.8.1,11.7.8,17.6,7.1,18,18.6.2,7.3.2,14.7,0,22-.4,11-6.5,17.8-17.3,18.3-12.9.6-25.9.6-38.8.2-9.8-.3-16.5-7-16.9-16.9-.5-11.7-.1-23.5-.2-35.3,0-5.2,2.7-7.4,7.7-7.4h23.8Z" transform="translate(-26.3 -62.3)" style="opacity:0.9;fill:url(#linear-gradient-2)"/><ellipse cx="139.4" cy="327.2" rx="111.4" ry="15" style="opacity:0.1;fill:url(#radial-gradient)"/></svg>